# xmcd
#
# Track frame offsets: 
#        150
#        3288
#        16379
#        34080
#        45785
#        61168
#        63710
#        81245
#        83017
#        97494
#        113698
#        126711
#        130307
#        139733
#        149293
#        164394
#        165910
#        179498
#
# Disc length: 2433 seconds
#
# Revision: 0
# Processed by: cddbd v1.5.2PL0 Copyright (c) Steve Scherf et al.
# Submitted via: ExactAudioCopy v1.0b1
#
DISCID=f4097f12
DTITLE=Stronzige Mission - Mit Ecken Und Kanten
DYEAR=2005
DGENRE=Hip-Hop
TTITLE0=Schritt Für Schritt (Intro)
TTITLE1=Die Wege Zum Licht
TTITLE2=Frieden Lieben
TTITLE3=Das Zeichen
TTITLE4=Was Los
TTITLE5=Stronz Mit Uns
TTITLE6=Zeit Deines Lebens
TTITLE7=Jetzt Wird Die Welt Erobert
TTITLE8=Erwachen
TTITLE9=Ächähmmm
TTITLE10=Wenn Der King Kommt
TTITLE11=Jackpot Remix
TTITLE12=Mit Respekt
TTITLE13=Übertrieben Fett
TTITLE14=Anna´s Po
TTITLE15=Shake Dat Ass
TTITLE16=Stars
TTITLE17=Wir Sind Raus (Outro)
EXTD=
EXTT0=
EXTT1=
EXTT2=
EXTT3=
EXTT4=
EXTT5=
EXTT6=
EXTT7=
EXTT8=
EXTT9=
EXTT10=
EXTT11=
EXTT12=
EXTT13=
EXTT14=
EXTT15=
EXTT16=
EXTT17=
PLAYORDER=
